<svg width="16" height="16" viewBox="0 0 16 16" fill="none" xmlns="http://www.w3.org/2000/svg">
<path d="M2.8393 11.0632C2.09384 9.80655 1.83277 8.32098 2.10512 6.88545C2.37747 5.44992 3.1645 4.16319 4.31843 3.26687C5.47235 2.37056 6.91379 1.92632 8.37208 2.01757C9.83036 2.10883 11.2052 2.7293 12.2384 3.76248C13.2715 4.79566 13.892 6.17047 13.9833 7.62875C14.0745 9.08703 13.6303 10.5285 12.734 11.6824C11.8377 12.8363 10.551 13.6234 9.11543 13.8957C7.67991 14.1681 6.19433 13.907 4.93766 13.1616L4.93767 13.1615L2.86539 13.7536C2.77965 13.7781 2.68892 13.7792 2.6026 13.7568C2.51629 13.7345 2.43752 13.6894 2.37447 13.6264C2.31142 13.5633 2.26637 13.4846 2.24401 13.3982C2.22164 13.3119 2.22276 13.2212 2.24726 13.1355L2.83934 11.0632L2.8393 11.0632Z" stroke="#3E3E3E" stroke-linecap="round" stroke-linejoin="round"/>
<path d="M6 7H10" stroke="#3E3E3E" stroke-linecap="round" stroke-linejoin="round"/>
<path d="M6 9H10" stroke="#3E3E3E" stroke-linecap="round" stroke-linejoin="round"/>
</svg>
