<svg width="20" height="20" viewBox="0 0 20 20" fill="none" xmlns="http://www.w3.org/2000/svg">
<path d="M19.4414 19.2914C19.0876 19.6425 18.609 19.8395 18.1101 19.8395C17.6112 19.8395 17.1326 19.6425 16.7788 19.2914L0.652114 3.38287C0.47512 3.20764 0.334635 2.99917 0.238765 2.76948C0.142895 2.53979 0.0935364 2.29342 0.0935364 2.04459C0.0935364 1.79577 0.142895 1.5494 0.238765 1.31971C0.334635 1.09001 0.47512 0.881543 0.652114 0.706318V0.706318C1.00592 0.355254 1.48454 0.158203 1.98342 0.158203C2.4823 0.158203 2.96091 0.355254 3.31472 0.706318L19.4414 16.6148C19.6184 16.7901 19.7589 16.9985 19.8548 17.2282C19.9506 17.4579 20 17.7043 20 17.9531C20 18.202 19.9506 18.4483 19.8548 18.678C19.7589 18.9077 19.6184 19.1162 19.4414 19.2914V19.2914Z" fill="black"/>
<path opacity="0.3" d="M3.31472 19.4245C2.95412 19.7894 2.46306 19.9964 1.94956 20C1.43606 20.0035 0.94218 19.8033 0.576576 19.4433C0.210972 19.0834 0.00358749 18.5932 4.61071e-05 18.0807C-0.00349528 17.5681 0.197096 17.0752 0.557692 16.7102L16.6844 0.575514C17.045 0.210583 17.5361 0.00358089 18.0496 4.60222e-05C18.5631 -0.00348885 19.0569 0.196733 19.4225 0.556665C19.7881 0.916597 19.9955 1.40676 19.9991 1.91931C20.0026 2.43187 19.802 2.92483 19.4414 3.28977L3.31472 19.4245Z" fill="black"/>
</svg>
