<svg width="32" height="32" viewBox="0 0 32 32" fill="none" xmlns="http://www.w3.org/2000/svg">
<path opacity="0.3" d="M23.04 29.0669H8.49335C7.35698 29.069 6.25911 28.6553 5.40681 27.9037C4.55451 27.1521 4.00669 26.1146 3.86668 24.9869L2.66668 14.9735C2.58038 14.1759 2.70061 13.3694 3.01582 12.6315C3.33103 11.8937 3.83064 11.2493 4.46668 10.7602L13.3333 3.88021C14.1764 3.21779 15.2228 2.86776 16.2948 2.88964C17.3667 2.91151 18.398 3.30394 19.2133 4.00021L27.68 11.1202C28.3137 11.6322 28.8004 12.3029 29.0908 13.064C29.3812 13.8251 29.4649 14.6496 29.3333 15.4535L27.6 25.2135C27.4149 26.2897 26.8561 27.2662 26.022 27.971C25.188 28.6758 24.132 29.0639 23.04 29.0669Z" fill="#3E3E3E"/>
<path d="M16 20.8924C17.8925 20.8924 19.4267 19.3582 19.4267 17.4657C19.4267 15.5732 17.8925 14.0391 16 14.0391C14.1075 14.0391 12.5734 15.5732 12.5734 17.4657C12.5734 19.3582 14.1075 20.8924 16 20.8924Z" fill="#3E3E3E"/>
</svg>
