<svg width="20" height="20" viewBox="0 0 20 20" fill="none" xmlns="http://www.w3.org/2000/svg">
<path opacity="0.3" d="M14.4 18.1661H5.3083C4.59807 18.1674 3.9119 17.9088 3.37921 17.4391C2.84652 16.9693 2.50413 16.3209 2.41663 15.6161L1.66663 9.35773C1.61269 8.85918 1.68783 8.35513 1.88484 7.89398C2.08185 7.43284 2.39411 7.03009 2.79163 6.7244L8.3333 2.4244C8.8602 2.01039 9.51423 1.79162 10.1842 1.80529C10.8542 1.81896 11.4987 2.06423 12.0083 2.4994L17.3 6.9494C17.696 7.2694 18.0002 7.68856 18.1817 8.16427C18.3632 8.63998 18.4155 9.15526 18.3333 9.65773L17.25 15.7577C17.1343 16.4304 16.785 17.0406 16.2637 17.4811C15.7424 17.9216 15.0825 18.1642 14.4 18.1661Z" fill="#3E3E3E"/>
<path d="M9.99994 13.0568C11.1828 13.0568 12.1416 12.0979 12.1416 10.9151C12.1416 9.73229 11.1828 8.77344 9.99994 8.77344C8.81713 8.77344 7.85828 9.73229 7.85828 10.9151C7.85828 12.0979 8.81713 13.0568 9.99994 13.0568Z" fill="#3E3E3E"/>
</svg>
