<svg width="18" height="18" viewBox="0 0 18 18" fill="none" xmlns="http://www.w3.org/2000/svg">
<path opacity="0.3" d="M16.125 14.5645L13.7475 12.3145C13.2955 12.8964 12.7537 13.4028 12.1425 13.8145L14.5875 16.1395C14.6903 16.2595 14.8174 16.3564 14.9605 16.4237C15.1035 16.4911 15.2592 16.5273 15.4172 16.53C15.5753 16.5327 15.7321 16.5018 15.8774 16.4395C16.0226 16.3771 16.153 16.2846 16.2598 16.1681C16.3667 16.0516 16.4476 15.9138 16.4973 15.7637C16.547 15.6137 16.5642 15.4548 16.5479 15.2975C16.5316 15.1403 16.4822 14.9883 16.4028 14.8516C16.3235 14.7149 16.216 14.5966 16.0875 14.5045L16.125 14.5645Z" fill="#7E7E7E"/>
<path d="M8.35501 1.5C7.01999 1.5 5.71495 1.89588 4.60491 2.63758C3.49488 3.37928 2.62972 4.43349 2.11883 5.66689C1.60794 6.90029 1.47426 8.25749 1.73471 9.56686C1.99516 10.8762 2.63804 12.079 3.58204 13.023C4.52605 13.967 5.72878 14.6099 7.03815 14.8703C8.34753 15.1308 9.70473 14.9971 10.9381 14.4862C12.1715 13.9753 13.2257 13.1101 13.9674 12.0001C14.7091 10.8901 15.105 9.58502 15.105 8.25C15.105 6.45979 14.3939 4.7429 13.128 3.47703C11.8621 2.21116 10.1452 1.5 8.35501 1.5ZM8.35501 13.02C7.4134 13.02 6.49292 12.7409 5.70989 12.2179C4.92687 11.6949 4.31644 10.9516 3.95576 10.0818C3.59508 9.21196 3.50033 8.25477 3.68348 7.33114C3.86664 6.40751 4.31948 5.5589 4.98478 4.89255C5.65007 4.22621 6.49797 3.77203 7.42131 3.58743C8.34465 3.40282 9.30199 3.49606 10.1724 3.85537C11.0427 4.21469 11.787 4.82394 12.3112 5.60614C12.8355 6.38835 13.116 7.30839 13.1175 8.25C13.1195 8.87633 12.9977 9.49688 12.7592 10.076C12.5206 10.6551 12.17 11.1814 11.7275 11.6247C11.2849 12.0679 10.7592 12.4193 10.1804 12.6588C9.6017 12.8982 8.98134 13.021 8.35501 13.02Z" fill="#7E7E7E"/>
</svg>
