<svg width="20" height="20" viewBox="0 0 20 20" fill="none" xmlns="http://www.w3.org/2000/svg">
<g opacity="0.3">
<path d="M14.0166 18.3327H2.49996C2.27895 18.3327 2.06698 18.2449 1.9107 18.0886C1.75442 17.9323 1.66663 17.7204 1.66663 17.4993V5.98268C1.66663 4.83783 2.12142 3.73987 2.93095 2.93034C3.74048 2.12081 4.83844 1.66602 5.98329 1.66602H14.0166C14.5835 1.66602 15.1448 1.77767 15.6685 1.9946C16.1923 2.21154 16.6681 2.5295 17.069 2.93034C17.4698 3.33118 17.7878 3.80704 18.0047 4.33077C18.2216 4.85449 18.3333 5.41581 18.3333 5.98268V14.016C18.3333 14.5829 18.2216 15.1442 18.0047 15.6679C17.7878 16.1917 17.4698 16.6675 17.069 17.0684C16.6681 17.4692 16.1923 17.7872 15.6685 18.0041C15.1448 18.221 14.5835 18.3327 14.0166 18.3327Z" fill="#3E3E3E"/>
</g>
<path d="M13.9667 8.54102H6.03333C5.86756 8.54102 5.70859 8.47517 5.59138 8.35796C5.47417 8.24075 5.40833 8.08178 5.40833 7.91602C5.40833 7.75026 5.47417 7.59128 5.59138 7.47407C5.70859 7.35686 5.86756 7.29102 6.03333 7.29102H13.9667C14.1324 7.29102 14.2914 7.35686 14.4086 7.47407C14.5258 7.59128 14.5917 7.75026 14.5917 7.91602C14.5917 8.08178 14.5258 8.24075 14.4086 8.35796C14.2914 8.47517 14.1324 8.54102 13.9667 8.54102Z" fill="#3E3E3E"/>
<path d="M11.325 12.707H6.03333C5.86756 12.707 5.70859 12.6412 5.59138 12.524C5.47417 12.4068 5.40833 12.2478 5.40833 12.082C5.40833 11.9163 5.47417 11.7573 5.59138 11.6401C5.70859 11.5229 5.86756 11.457 6.03333 11.457H11.325C11.4908 11.457 11.6497 11.5229 11.7669 11.6401C11.8841 11.7573 11.95 11.9163 11.95 12.082C11.95 12.2478 11.8841 12.4068 11.7669 12.524C11.6497 12.6412 11.4908 12.707 11.325 12.707Z" fill="#3E3E3E"/>
</svg>
