<svg width="32" height="32" viewBox="0 0 32 32" fill="none" xmlns="http://www.w3.org/2000/svg">
<path opacity="0.3" d="M16 29.3327C23.3638 29.3327 29.3333 23.3631 29.3333 15.9993C29.3333 8.63555 23.3638 2.66602 16 2.66602C8.63616 2.66602 2.66663 8.63555 2.66663 15.9993C2.66663 23.3631 8.63616 29.3327 16 29.3327Z" fill="#3E3E3E"/>
<path d="M15.9999 17.9444C16.9867 17.9444 17.7866 17.1445 17.7866 16.1578C17.7866 15.171 16.9867 14.3711 15.9999 14.3711C15.0132 14.3711 14.2133 15.171 14.2133 16.1578C14.2133 17.1445 15.0132 17.9444 15.9999 17.9444Z" fill="#3E3E3E"/>
<path d="M15.9999 11.253C16.9867 11.253 17.7866 10.4531 17.7866 9.46635C17.7866 8.47961 16.9867 7.67969 15.9999 7.67969C15.0132 7.67969 14.2133 8.47961 14.2133 9.46635C14.2133 10.4531 15.0132 11.253 15.9999 11.253Z" fill="#3E3E3E"/>
<path d="M15.9999 24.6241C16.9867 24.6241 17.7866 23.8242 17.7866 22.8374C17.7866 21.8507 16.9867 21.0508 15.9999 21.0508C15.0132 21.0508 14.2133 21.8507 14.2133 22.8374C14.2133 23.8242 15.0132 24.6241 15.9999 24.6241Z" fill="#3E3E3E"/>
</svg>
