<svg width="20" height="20" viewBox="0 0 20 20" fill="none" xmlns="http://www.w3.org/2000/svg">
<path opacity="0.3" d="M9.99996 18.3327C14.6023 18.3327 18.3333 14.6017 18.3333 9.99935C18.3333 5.39698 14.6023 1.66602 9.99996 1.66602C5.39759 1.66602 1.66663 5.39698 1.66663 9.99935C1.66663 14.6017 5.39759 18.3327 9.99996 18.3327Z" fill="#3E3E3E"/>
<path d="M9.99997 11.2158C10.6167 11.2158 11.1166 10.7158 11.1166 10.0991C11.1166 9.48237 10.6167 8.98242 9.99997 8.98242C9.38325 8.98242 8.8833 9.48237 8.8833 10.0991C8.8833 10.7158 9.38325 11.2158 9.99997 11.2158Z" fill="#3E3E3E"/>
<path d="M9.99997 7.03216C10.6167 7.03216 11.1166 6.53221 11.1166 5.91549C11.1166 5.29878 10.6167 4.79883 9.99997 4.79883C9.38325 4.79883 8.8833 5.29878 8.8833 5.91549C8.8833 6.53221 9.38325 7.03216 9.99997 7.03216Z" fill="#3E3E3E"/>
<path d="M9.99997 15.3896C10.6167 15.3896 11.1166 14.8896 11.1166 14.2729C11.1166 13.6562 10.6167 13.1562 9.99997 13.1562C9.38325 13.1562 8.8833 13.6562 8.8833 14.2729C8.8833 14.8896 9.38325 15.3896 9.99997 15.3896Z" fill="#3E3E3E"/>
</svg>
