<svg width="20" height="20" viewBox="0 0 20 20" fill="none" xmlns="http://www.w3.org/2000/svg">
<path opacity="0.3" d="M13.2167 2.33398H6.49999C3.76618 2.33398 1.54999 4.55017 1.54999 7.28398V14.0423C1.54999 16.7761 3.76618 18.9923 6.49999 18.9923H13.2167C15.9505 18.9923 18.1667 16.7761 18.1667 14.0423V7.28398C18.1667 4.55017 15.9505 2.33398 13.2167 2.33398Z" fill="#3E97FF"/>
<path d="M12.1333 2.93285L12.9667 1.84118C13.1262 1.62367 13.3275 1.44021 13.5589 1.30158C13.7903 1.16295 14.047 1.07195 14.3141 1.03391C14.5811 0.99587 14.8531 1.01157 15.114 1.08007C15.3749 1.14858 15.6194 1.26852 15.8333 1.43285L17.6333 2.83285C18.069 3.17523 18.3543 3.67367 18.4289 4.22269C18.5036 4.77172 18.3617 5.32824 18.0333 5.77452L17.2 6.86618C16.608 6.98097 15.9982 6.96591 15.4126 6.82203C14.8271 6.67815 14.2797 6.4089 13.8083 6.03285C13.3283 5.66155 12.9314 5.19392 12.6429 4.66004C12.3544 4.12616 12.1809 3.53782 12.1333 2.93285ZM12.9667 7.26618C12.0568 6.56442 11.3683 5.6155 10.9833 4.53285L7.91666 8.64118C7.65536 8.96842 7.50895 9.37252 7.5 9.79118V12.4995C7.4932 12.7419 7.54365 12.9824 7.64727 13.2016C7.75089 13.4208 7.90475 13.6125 8.09635 13.7611C8.28796 13.9096 8.5119 14.0109 8.75 14.0567C8.98809 14.1025 9.23363 14.0915 9.46666 14.0245L12.0333 13.2412C12.4223 13.1221 12.7617 12.8792 13 12.5495L16.0417 8.44118C14.9123 8.36495 13.8307 7.95611 12.9333 7.26618H12.9667Z" fill="#3E97FF"/>
</svg>
