<svg width="40" height="40" viewBox="0 0 40 40" fill="none" xmlns="http://www.w3.org/2000/svg">
<rect width="40" height="40" rx="4" fill="#EFF3FC"/>
<path d="M20 19.1851C19.7359 19.1816 19.4835 19.0751 19.2967 18.8883C19.1099 18.7015 19.0035 18.4492 19 18.1851V14.0117C19 13.7465 19.1054 13.4921 19.2929 13.3046C19.4804 13.1171 19.7348 13.0117 20 13.0117C20.2652 13.0117 20.5196 13.1171 20.7071 13.3046C20.8946 13.4921 21 13.7465 21 14.0117V18.1851C20.9965 18.4492 20.8901 18.7015 20.7033 18.8883C20.5165 19.0751 20.2641 19.1816 20 19.1851Z" fill="#3E3E3E"/>
<g opacity="0.3">
<path d="M29.4133 22.2131C28.2104 20.4067 27.5871 18.2763 27.6267 16.1064V15.8664C27.6231 14.6304 27.3133 13.4146 26.7249 12.3276C26.1366 11.2407 25.288 10.3164 24.2552 9.63755C23.2224 8.95867 22.0374 8.54631 20.8062 8.43733C19.575 8.32836 18.336 8.52617 17.2 9.01308C15.8692 9.56332 14.7343 10.5007 13.9426 11.7037C13.1509 12.9067 12.7389 14.3198 12.76 15.7597V15.8531C12.7764 18.1778 12.0423 20.4457 10.6667 22.3197L9.76001 23.5464C9.4004 24.0323 9.20853 24.6219 9.21335 25.2264C9.22712 25.9599 9.52554 26.6594 10.0456 27.1769C10.5656 27.6944 11.2664 27.9895 12 27.9997H28C28.3712 27.9997 28.7388 27.9266 29.0817 27.7846C29.4247 27.6425 29.7363 27.4343 29.9988 27.1718C30.2612 26.9094 30.4695 26.5977 30.6115 26.2548C30.7536 25.9118 30.8267 25.5443 30.8267 25.1731V25.0931C30.8299 24.5382 30.6674 23.995 30.36 23.5331L29.4133 22.2131Z" fill="#3E3E3E"/>
</g>
<path d="M17.4267 29.332C17.5802 29.8969 17.9153 30.3956 18.3804 30.7512C18.8455 31.1067 19.4146 31.2994 20 31.2994C20.5854 31.2994 21.1545 31.1067 21.6196 30.7512C22.0847 30.3956 22.4198 29.8969 22.5733 29.332H17.4267Z" fill="#3E3E3E"/>
</svg>
