<svg width="16" height="16" viewBox="0 0 16 16" fill="none" xmlns="http://www.w3.org/2000/svg">
<path d="M1.99963 6.5H4.99963V13H1.99963C1.86703 13 1.73985 12.9473 1.64608 12.8536C1.55231 12.7598 1.49963 12.6326 1.49963 12.5V7C1.49963 6.86739 1.55231 6.74021 1.64608 6.64645C1.73985 6.55268 1.86703 6.5 1.99963 6.5V6.5Z" stroke="#3E3E3E" stroke-linecap="round" stroke-linejoin="round"/>
<path d="M4.99963 6.5L7.49963 1.5C7.76228 1.5 8.02235 1.55173 8.265 1.65224C8.50765 1.75275 8.72813 1.90007 8.91385 2.08579C9.09956 2.2715 9.24688 2.49198 9.34739 2.73463C9.4479 2.97728 9.49963 3.23736 9.49963 3.5V5H13.3669C13.5086 5 13.6488 5.03015 13.7781 5.08846C13.9073 5.14677 14.0227 5.2319 14.1165 5.3382C14.2104 5.4445 14.2805 5.56954 14.3224 5.70502C14.3642 5.84051 14.3767 5.98334 14.3591 6.12403L13.6091 12.124C13.5789 12.3659 13.4614 12.5884 13.2787 12.7497C13.0959 12.911 12.8606 13 12.6169 13H4.99963" stroke="#3E3E3E" stroke-linecap="round" stroke-linejoin="round"/>
</svg>
