<svg width="119" height="32" viewBox="0 0 119 32" fill="none" xmlns="http://www.w3.org/2000/svg">
<g clip-path="url(#clip0_9_55)">
<path opacity="0.94" fill-rule="evenodd" clip-rule="evenodd" d="M10.96 -0.0800781C11.12 -0.0800781 11.28 -0.0800781 11.44 -0.0800781C12.8766 1.46323 14.37 2.95656 15.92 4.39992C17.4701 2.95656 18.9633 1.46323 20.4 -0.0800781C20.56 -0.0800781 20.72 -0.0800781 20.88 -0.0800781C21.3539 0.474184 21.8606 1.00752 22.4 1.51992C22.5067 1.67992 22.5067 1.83992 22.4 1.99992C20.9043 3.46885 19.4377 4.96219 18 6.47992C19.7577 8.31768 21.5443 10.131 23.36 11.9199C23.4667 12.0799 23.4667 12.2399 23.36 12.3999C22.7733 12.9866 22.1867 13.5733 21.6 14.1599C17.5467 10.1066 13.4933 6.05325 9.43999 1.99992C9.33332 1.83992 9.33332 1.67992 9.43999 1.51992C9.97933 1.00752 10.486 0.474184 10.96 -0.0800781Z" fill="#47AAFF"/>
<path opacity="0.951" fill-rule="evenodd" clip-rule="evenodd" d="M118.32 5.35963C118.32 5.46631 118.32 5.57296 118.32 5.67963C115.851 9.09485 113.397 12.5349 110.96 15.9996C113.397 19.4644 115.851 22.9044 118.32 26.3196C118.32 26.4264 118.32 26.5329 118.32 26.6396C117.036 26.6926 115.756 26.6393 114.48 26.4796C112.759 23.9449 110.999 21.4384 109.2 18.9596C107.33 21.4446 105.516 23.978 103.76 26.5596C102.477 26.6928 101.197 26.666 99.92 26.4796C102.354 22.9723 104.807 19.479 107.28 15.9996C104.827 12.4796 102.373 8.95964 99.92 5.43963C101.2 5.33296 102.48 5.33296 103.76 5.43963C105.566 8.01237 107.353 10.599 109.12 13.1996C110.867 10.6117 112.654 8.05168 114.48 5.51963C115.756 5.36 117.036 5.30667 118.32 5.35963Z" fill="#222222"/>
<path opacity="0.909" fill-rule="evenodd" clip-rule="evenodd" d="M73.0401 5.83984C74.9753 5.87874 75.5885 6.7854 74.8801 8.55984C74.1655 9.2612 73.3922 9.3412 72.5601 8.79984C71.6356 7.63576 71.7956 6.64911 73.0401 5.83984Z" fill="#222222"/>
<path opacity="0.948" fill-rule="evenodd" clip-rule="evenodd" d="M39.9199 8.08008C40.9332 8.08008 41.9467 8.08008 42.9599 8.08008C42.9599 9.57341 42.9599 11.0668 42.9599 12.5601C44.1867 12.5601 45.4132 12.5601 46.6399 12.5601C46.6399 13.4134 46.6399 14.2667 46.6399 15.1201C45.4132 15.1201 44.1867 15.1201 42.9599 15.1201C42.9332 17.1474 42.9599 19.1742 43.0399 21.2001C42.9915 23.7148 44.1649 24.6748 46.5599 24.0801C46.6667 24.8801 46.6667 25.6801 46.5599 26.4801C43.6963 27.5345 41.6163 26.6812 40.3199 23.9201C40.1619 23.4522 40.0553 22.9722 39.9999 22.4801C39.9199 20.0273 39.8932 17.574 39.9199 15.1201C39.3867 15.1201 38.8532 15.1201 38.3199 15.1201C38.3199 14.2667 38.3199 13.4134 38.3199 12.5601C38.8532 12.5601 39.3867 12.5601 39.9199 12.5601C39.9199 11.0668 39.9199 9.57341 39.9199 8.08008Z" fill="#222222"/>
<path opacity="0.948" fill-rule="evenodd" clip-rule="evenodd" d="M79.92 8.08008C80.9333 8.08008 81.9467 8.08008 82.96 8.08008C82.96 9.57341 82.96 11.0668 82.96 12.5601C84.1867 12.5601 85.4133 12.5601 86.64 12.5601C86.64 13.4134 86.64 14.2667 86.64 15.1201C85.4133 15.1201 84.1867 15.1201 82.96 15.1201C82.9333 17.1474 82.96 19.1742 83.04 21.2001C82.9915 23.7148 84.165 24.6748 86.56 24.0801C86.6667 24.8801 86.6667 25.6801 86.56 26.4801C83.6963 27.5345 81.6163 26.6812 80.32 23.9201C80.1619 23.4522 80.0554 22.9722 80 22.4801C79.92 20.0273 79.8933 17.574 79.92 15.1201C79.3867 15.1201 78.8533 15.1201 78.32 15.1201C78.32 14.2667 78.32 13.4134 78.32 12.5601C78.8533 12.5601 79.3867 12.5601 79.92 12.5601C79.92 11.0668 79.92 9.57341 79.92 8.08008Z" fill="#222222"/>
<path opacity="0.942" fill-rule="evenodd" clip-rule="evenodd" d="M90.8 8.08008C91.8133 8.08008 92.8267 8.08008 93.84 8.08008C93.84 9.57341 93.84 11.0668 93.84 12.5601C95.0667 12.5601 96.2933 12.5601 97.52 12.5601C97.52 13.4134 97.52 14.2667 97.52 15.1201C96.2933 15.1201 95.0667 15.1201 93.84 15.1201C93.8133 17.5207 93.84 19.9207 93.92 22.3201C94.4429 24.115 95.5896 24.7015 97.36 24.0801C97.5459 24.8748 97.5726 25.6748 97.44 26.4801C94.1339 27.5735 91.9472 26.4535 90.88 23.1201C90.8 20.454 90.7733 17.7873 90.8 15.1201C90.2133 15.1201 89.6267 15.1201 89.04 15.1201C89.04 14.2667 89.04 13.4134 89.04 12.5601C89.6267 12.5601 90.2133 12.5601 90.8 12.5601C90.8 11.0668 90.8 9.57341 90.8 8.08008Z" fill="#222222"/>
<path opacity="0.941" fill-rule="evenodd" clip-rule="evenodd" d="M-0.0799561 20.8802C-0.0799561 20.7202 -0.0799561 20.5602 -0.0799561 20.4002C1.46335 18.9636 2.95668 17.4703 4.40004 15.9202C2.95668 14.3702 1.46335 12.8769 -0.0799561 11.4402C-0.0799561 11.2802 -0.0799561 11.1202 -0.0799561 10.9602C0.526916 10.5403 1.06025 10.0336 1.52004 9.44023C1.68004 9.33356 1.84004 9.33356 2.00004 9.44023C3.46897 10.9359 4.96232 12.4025 6.48004 13.8402C8.3978 12.0025 10.2911 10.1358 12.16 8.24023C12.8267 8.90691 13.4934 9.57356 14.16 10.2402C10.1067 14.2936 6.05337 18.347 2.00004 22.4002C1.7748 22.4506 1.56147 22.3974 1.36004 22.2402C0.900946 21.7542 0.420946 21.3009 -0.0799561 20.8802Z" fill="#46AAFF"/>
<path opacity="0.941" fill-rule="evenodd" clip-rule="evenodd" d="M29.8401 9.36004C30.0084 9.33612 30.1684 9.3628 30.3201 9.44004C30.8268 9.94672 31.3333 10.4534 31.8401 10.96C31.9468 11.12 31.9468 11.28 31.8401 11.44C30.3444 12.909 28.8778 14.4023 27.4401 15.92C28.8778 17.4378 30.3444 18.9311 31.8401 20.4C31.9468 20.56 31.9468 20.72 31.8401 20.88C31.2801 21.3333 30.7733 21.84 30.3201 22.4C30.1601 22.5068 30.0001 22.5068 29.8401 22.4C28.3711 20.9044 26.8778 19.4378 25.3601 18C23.4423 19.8378 21.549 21.7044 19.6801 23.6C19.0133 22.9333 18.3468 22.2668 17.6801 21.6C21.7657 17.5412 25.8189 13.4612 29.8401 9.36004Z" fill="#46AAFF"/>
<path opacity="0.946" fill-rule="evenodd" clip-rule="evenodd" d="M48.5601 12.5607C49.5789 12.5079 50.5924 12.5613 51.6001 12.7207C52.6793 15.8254 53.7727 18.9188 54.8801 22.0007C55.9042 18.9015 56.9442 15.8081 58.0001 12.7207C58.741 12.5348 59.4877 12.5082 60.2401 12.6407C61.3957 15.7874 62.489 18.9608 63.5201 22.1607C64.5551 19.0021 65.6218 15.8555 66.7201 12.7207C67.7511 12.5111 68.7911 12.5111 69.8401 12.7207C68.0801 17.3074 66.3201 21.894 64.5601 26.4807C63.8748 26.6394 63.1815 26.6928 62.4801 26.6407C61.4356 23.6944 60.3423 20.7612 59.2001 17.8407C58.0501 20.7028 56.9301 23.5828 55.8401 26.4807C55.1812 26.6884 54.5145 26.6884 53.8401 26.4807C51.9842 21.8724 50.2242 17.2324 48.5601 12.5607Z" fill="#222222"/>
<path opacity="0.955" fill-rule="evenodd" clip-rule="evenodd" d="M72.08 12.5605C73.0932 12.5605 74.1067 12.5605 75.12 12.5605C75.12 17.2538 75.12 21.9473 75.12 26.6405C74.1067 26.6405 73.0932 26.6405 72.08 26.6405C72.08 21.9473 72.08 17.2538 72.08 12.5605Z" fill="#222222"/>
<path opacity="0.94" fill-rule="evenodd" clip-rule="evenodd" d="M20.88 31.9197C20.72 31.9197 20.56 31.9197 20.4 31.9197C18.9634 30.3763 17.4701 28.883 15.92 27.4397C14.37 28.883 12.8767 30.3763 11.44 31.9197C11.28 31.9197 11.12 31.9197 10.96 31.9197C10.486 31.3654 9.97937 30.8322 9.44003 30.3197C9.33336 30.1597 9.33336 29.9997 9.44003 29.8397C10.9357 28.3707 12.4023 26.8774 13.84 25.3597C12.0823 23.5219 10.2956 21.7086 8.48003 19.9197C8.37336 19.7597 8.37336 19.5997 8.48003 19.4397C9.0667 18.853 9.65336 18.2664 10.24 17.6797C14.2934 21.733 18.3467 25.7864 22.4 29.8397C22.5067 29.9997 22.5067 30.1597 22.4 30.3197C21.8607 30.8322 21.3539 31.3654 20.88 31.9197Z" fill="#47AAFF"/>
</g>
<defs>
<clipPath id="clip0_9_55">
<rect width="118.4" height="32" fill="white"/>
</clipPath>
</defs>
</svg>
