<svg width="32" height="32" viewBox="0 0 32 32" fill="none" xmlns="http://www.w3.org/2000/svg">
<g opacity="0.3">
<path d="M15.9999 15.8927C19.6524 15.8927 22.6133 12.9318 22.6133 9.27935C22.6133 5.62691 19.6524 2.66602 15.9999 2.66602C12.3475 2.66602 9.3866 5.62691 9.3866 9.27935C9.3866 12.9318 12.3475 15.8927 15.9999 15.8927Z" fill="#3E3E3E"/>
</g>
<path d="M26.2666 29.3325C26.4846 29.3449 26.7026 29.3101 26.906 29.2307C27.1093 29.1512 27.2931 29.0289 27.445 28.872C27.5968 28.7151 27.713 28.5274 27.7858 28.3215C27.8585 28.1157 27.8861 27.8966 27.8666 27.6792C27.0133 22.6658 22.0266 18.8125 15.9999 18.8125C9.97327 18.8125 4.98661 22.6658 4.13327 27.6792C4.11377 27.8966 4.14134 28.1157 4.2141 28.3215C4.28686 28.5274 4.4031 28.7151 4.55492 28.872C4.70674 29.0289 4.89057 29.1512 5.09391 29.2307C5.29724 29.3101 5.51531 29.3449 5.73327 29.3325H26.2666Z" fill="#3E3E3E"/>
</svg>
