<svg width="20" height="20" viewBox="0 0 20 20" fill="none" xmlns="http://www.w3.org/2000/svg">
<g opacity="0.3">
<path d="M10 9.93268C12.2828 9.93268 14.1334 8.08213 14.1334 5.79935C14.1334 3.51657 12.2828 1.66602 10 1.66602C7.71726 1.66602 5.8667 3.51657 5.8667 5.79935C5.8667 8.08213 7.71726 9.93268 10 9.93268Z" fill="#3E3E3E"/>
</g>
<path d="M16.4167 18.3328C16.5529 18.3405 16.6892 18.3188 16.8163 18.2692C16.9434 18.2195 17.0583 18.143 17.1532 18.045C17.2481 17.9469 17.3207 17.8296 17.3662 17.701C17.4117 17.5723 17.4289 17.4354 17.4167 17.2995C16.8834 14.1661 13.7667 11.7578 10.0001 11.7578C6.23339 11.7578 3.11672 14.1661 2.58339 17.2995C2.5712 17.4354 2.58843 17.5723 2.6339 17.701C2.67938 17.8296 2.75203 17.9469 2.84692 18.045C2.94181 18.143 3.0567 18.2195 3.18378 18.2692C3.31087 18.3188 3.44716 18.3405 3.58339 18.3328H16.4167Z" fill="#3E3E3E"/>
</svg>
